<svg id="paycrypto.me-icon" viewBox="0 0 640 640" xmlns="http://www.w3.org/2000/svg">
  <g transform="matrix(0.132364, 0, 0, 0.132364, 91.946663, 28.868471)" style="">
    <g>
      <path fill="#F7931A" fill-rule="nonzero" d="M 4041.52 2337.78 C 3768.28 3433.79 2658.2 4100.8 1562.06 3827.49 C 466.383 3554.25 -200.63 2444.1 72.733 1348.18 C 345.853 252.052 1455.93 -415.01 2551.73 -141.77 C 3647.79 131.472 4314.76 1241.74 4041.49 2337.8 L 4041.51 2337.78 L 4041.52 2337.78 Z"></path>
      <path fill="white" fill-rule="nonzero" d="M2947.77 1754.38c40.72,-272.26 -166.56,-418.61 -450,-516.24l91.95 -368.8 -224.5 -55.94 -89.51 359.09c-59.02,-14.72 -119.63,-28.59 -179.87,-42.34l90.16 -361.46 -224.36 -55.94 -92 368.68c-48.84,-11.12 -96.81,-22.11 -143.35,-33.69l0.26 -1.16 -309.59 -77.31 -59.72 239.78c0,0 166.56,38.18 163.05,40.53 90.91,22.69 107.35,82.87 104.62,130.57l-104.74 420.15c6.26,1.59 14.38,3.89 23.34,7.49 -7.49,-1.86 -15.46,-3.89 -23.73,-5.87l-146.81 588.57c-11.11,27.62 -39.31,69.07 -102.87,53.33 2.25,3.26 -163.17,-40.72 -163.17,-40.72l-111.46 256.98 292.15 72.83c54.35,13.63 107.61,27.89 160.06,41.3l-92.9 373.03 224.24 55.94 92 -369.07c61.26,16.63 120.71,31.97 178.91,46.43l-91.69 367.33 224.51 55.94 92.89 -372.33c382.82,72.45 670.67,43.24 791.83,-303.02 97.63,-278.78 -4.86,-439.58 -206.26,-544.44 146.69,-33.83 257.18,-130.31 286.64,-329.61l-0.07 -0.05zm-512.93 719.26c-69.38,278.78 -538.76,128.08 -690.94,90.29l123.28 -494.2c152.17,37.99 640.17,113.17 567.67,403.91zm69.43 -723.3c-63.29,253.58 -453.96,124.75 -580.69,93.16l111.77 -448.21c126.73,31.59 534.85,90.55 468.94,355.05l-0.02 0z"></path>
    </g>
  </g>
  <path d="M 74.434 497.963 L 121.596 450.802 C 148.227 424.168 184.402 409.188 222.02 409.188 L 391.024 409.188 C 410.665 409.188 426.534 425.057 426.534 444.697 C 426.534 464.338 410.665 480.208 391.024 480.208 L 311.126 480.208 C 296.368 480.208 284.494 492.081 284.494 506.839 C 284.494 521.598 296.368 533.471 311.126 533.471 L 436.076 533.471 L 568.903 435.598 C 588.657 421.063 616.398 425.279 630.931 445.03 C 645.469 464.782 641.252 492.525 621.502 507.061 L 481.018 610.595 C 455.052 629.681 423.758 640 391.467 640 L 35.93 640 C 16.288 640 0.419 624.131 0.419 604.489 L 0.419 533.471 C 0.419 513.832 16.288 497.963 35.93 497.963 L 74.434 497.963 Z" style="stroke-width: 1; fill: rgba(0, 0, 0, 0.86);"></path>
</svg>